<?xml version="1.0" encoding="UTF-8" standalone="no"?>
<svg
   xmlns:dc="http://purl.org/dc/elements/1.1/"
   xmlns:cc="http://creativecommons.org/ns#"
   xmlns:rdf="http://www.w3.org/1999/02/22-rdf-syntax-ns#"
   xmlns:svg="http://www.w3.org/2000/svg"
   xmlns="http://www.w3.org/2000/svg"
   xmlns:sodipodi="http://sodipodi.sourceforge.net/DTD/sodipodi-0.dtd"
   xmlns:inkscape="http://www.inkscape.org/namespaces/inkscape"
   version="1.1"
   width="93.226997"
   height="96.903"
   viewBox="0 0 93.226997 96.903"
   id="svg34"
   sodipodi:docname="Glow-S.svg"
   inkscape:version="1.0.1 (3bc2e813f5, 2020-09-07)">
  <metadata
     id="metadata40">
    <rdf:RDF>
      <cc:Work
         rdf:about="">
        <dc:format>image/svg+xml</dc:format>
        <dc:type
           rdf:resource="http://purl.org/dc/dcmitype/StillImage" />
        <dc:title></dc:title>
      </cc:Work>
    </rdf:RDF>
  </metadata>
  <defs
     id="defs38">
    <linearGradient
       x1="30.059999"
       y1="30.059999"
       x2="225.94"
       y2="225.94"
       id="RSSg"
       gradientUnits="userSpaceOnUse">
      <stop
         offset="0.0"
         stop-color="#E3702D"
         id="stop76" />
      <stop
         offset="0.1071"
         stop-color="#EA7D31"
         id="stop78" />
      <stop
         offset="0.3503"
         stop-color="#F69537"
         id="stop80" />
      <stop
         offset="0.5"
         stop-color="#FB9E3A"
         id="stop82" />
      <stop
         offset="0.7016"
         stop-color="#EA7C31"
         id="stop84" />
      <stop
         offset="0.8866"
         stop-color="#DE642B"
         id="stop86" />
      <stop
         offset="1.0"
         stop-color="#D95B29"
         id="stop88" />
    </linearGradient>
  </defs>
  <sodipodi:namedview
     pagecolor="#ffffff"
     bordercolor="#666666"
     borderopacity="1"
     objecttolerance="10"
     gridtolerance="10"
     guidetolerance="10"
     inkscape:pageopacity="0"
     inkscape:pageshadow="2"
     inkscape:window-width="1920"
     inkscape:window-height="1017"
     id="namedview36"
     showgrid="false"
     inkscape:zoom="2.523123"
     inkscape:cx="69.81032"
     inkscape:cy="163.56563"
     inkscape:window-x="-8"
     inkscape:window-y="-8"
     inkscape:window-maximized="1"
     inkscape:current-layer="svg34"
     units="px"
     width="93.227mm" />
  <g
     id="g234"
     transform="translate(102.97554,170.12602)">
    <g
       id="g248"
       transform="translate(-57.64428,-7.8738749)">
      <g
         id="g124"
         transform="matrix(0.31718026,0,0,0.31718026,-45.331256,-162.25215)"
         style="stroke-width:1.57639">
        <rect
           width="256"
           height="256"
           rx="86.701485"
           ry="86.701485"
           x="0"
           y="0"
           fill="#cc5d15"
           id="rect93"
           style="stroke-width:2.48501" />
        <rect
           width="246"
           height="246"
           rx="78.819534"
           ry="78.819534"
           x="5"
           y="5"
           fill="#f49c52"
           id="rect95"
           style="stroke-width:2.48501" />
        <rect
           width="236"
           height="236"
           rx="74.090363"
           ry="74.090363"
           x="10"
           y="10"
           fill="url(#RSSg)"
           id="rect97"
           style="fill:url(#RSSg);stroke-width:1.57639" />
        <circle
           cx="68"
           cy="189"
           r="24"
           fill="#ffffff"
           id="circle99"
           style="stroke-width:2.48501" />
        <path
           d="M 160,213 H 126 A 82,82 0 0 0 44,131 V 97 a 116,116 0 0 1 116,116 z"
           fill="#ffffff"
           id="path101"
           style="stroke-width:2.48501" />
        <path
           d="M 184,213 A 140,140 0 0 0 44,73 V 38 a 175,175 0 0 1 175,175 z"
           fill="#ffffff"
           id="path103"
           style="stroke-width:2.48501" />
      </g>
      <g
         id="g218"
         transform="translate(65.387317,-152.93464)">
        <g
           transform="matrix(0.6819302,0,0,0.6819302,-200.12486,-63.76361)"
           id="g32"
           style="stroke-width:1.46643">
          <g
             data-paper-data="{&quot;isPaintingLayer&quot;:true}"
             fill-rule="nonzero"
             stroke="none"
             stroke-width="1.46643"
             stroke-linecap="butt"
             stroke-linejoin="miter"
             stroke-miterlimit="10"
             stroke-dasharray="none"
             stroke-dashoffset="0"
             style="mix-blend-mode:normal"
             id="g30">
            <path
               d="m 266.78,199.432 c -3.23,8.95 -12.01,14.39 -26.09,16.17 -0.64,0.08 -1.27,0.13 -1.9,0.15 -0.82,1.2 -1.89,2.24 -3.15,3.05 -3.3,2.11 -6.39,3.14 -9.44,3.14 -6.27,0 -13.02,-4.68 -13.02,-14.96 0,-0.7 0.03,-1.61 0.1,-2.87 0.03,-0.54 0.06,-0.96 0.07,-1.27 -0.17,-0.78 -0.26,-1.57 -0.26,-2.37 v -4.84 c 0,-0.79 0.08,-1.58 0.24,-2.37 0.01,-0.67 0.04,-1.42 0.09,-2.24 -0.24,-0.88 -0.42,-1.9 -0.42,-3.04 0,-0.52 0.04,-1.04 0.11,-1.55 0.38,-2.68 1.57,-5.37 3.58,-7.52 -0.69,-1.93 -1.05,-3.97 -1.05,-6.06 v -5.1 c 0,-2.07 0.41,-4.65 2.42,-11.07 0.84,-2.76 1.11,-3.62 1.48,-4.42 1.97,-4.42 4.94,-6.63 7.1,-7.72 3.53,-1.76 7.32,-2.66 11.26,-2.66 1.82,0 3.56,0.19 5.22,0.55 0.74,-0.5 1.53,-0.92 2.37,-1.27 1.07,-0.46 2.21,-0.78 3.47,-0.98 3.15,-0.54 6.48,0.13 9.38,1.89 3.05,1.86 6.55,5.72 6.12,13.66 -0.07,1.4 -0.19,3.27 -0.37,5.71 -0.01,0.06 -0.01,0.12 -0.02,0.18 -0.16,1.77 -0.39,4.41 -0.7,7.9 0.08,1.35 0.05,2.86 -0.07,4.64 -0.05,0.68 -0.16,1.36 -0.34,2.02 -0.04,0.15 -0.08,0.29 -0.12,0.42 1.35,1.73 2.27,3.46 2.9,4.96 0.59,1.19 1.09,2.56 1.53,4.23 0.17,0.63 0.28,1.27 0.33,1.92 0.45,5.61 0.22,8.92 -0.82,11.72 z"
               fill="#f9a83a"
               id="path26"
               style="stroke-width:2.1504" />
            <path
               d="m 256.636,188.596 c 0.293,3.637 0.233,5.981 -0.176,7.037 -1.702,4.809 -7.42,7.828 -17.152,9.06 -3.285,0.411 -6.568,-1.143 -9.853,-4.662 0,0.528 0.117,2.111 0.353,4.751 0.176,1.935 0.146,3.518 -0.088,4.749 -1.467,0.938 -2.639,1.408 -3.519,1.408 -1.35,0 -2.023,-1.319 -2.023,-3.959 0,-0.469 0.029,-1.216 0.088,-2.242 0.058,-1.025 0.088,-1.744 0.088,-2.155 0,-0.997 -0.088,-1.7 -0.264,-2.111 v -4.838 c 0,-0.117 0.029,-0.249 0.088,-0.396 0.058,-0.146 0.117,-0.278 0.176,-0.396 -0.059,-0.82 -0.03,-2.081 0.088,-3.782 0.117,-1.056 0.117,-1.729 0,-2.023 -0.294,-0.585 -0.439,-0.937 -0.439,-1.055 0.233,-1.642 1.437,-2.463 3.606,-2.463 1.407,0 2.257,0.499 2.551,1.495 0,0.938 0.117,2.317 0.352,4.134 0.353,2.111 1.466,4.223 3.343,6.333 2.052,2.405 4.016,3.519 5.894,3.343 2.111,-0.233 4.222,-0.732 6.333,-1.495 2.932,-1.056 4.691,-2.287 5.278,-3.694 0.409,-1.056 0.615,-2.169 0.615,-3.343 0,-3.576 -1.319,-6.245 -3.958,-8.004 -1.174,-0.762 -3.343,-1.378 -6.51,-1.848 -1.818,-0.233 -2.933,-0.352 -3.342,-0.352 -2.815,0.059 -5.44,-0.85 -7.873,-2.727 -2.434,-1.876 -3.65,-4.047 -3.65,-6.51 v -5.101 c 0,-1.113 0.645,-3.723 1.936,-7.828 0.585,-1.936 0.908,-2.961 0.968,-3.079 0.527,-1.231 1.201,-2.052 2.022,-2.463 1.993,-0.996 4.104,-1.495 6.333,-1.495 4.339,0 7.535,1.759 9.588,5.277 0.176,0.176 0.469,0.44 0.88,0.792 0.058,-0.82 0.176,-2.081 0.352,-3.782 -0.059,-0.762 -0.118,-1.495 -0.176,-2.199 0,-0.82 0.409,-1.377 1.231,-1.671 0.234,-0.117 0.557,-0.205 0.968,-0.264 0.586,-0.117 1.217,0.03 1.892,0.439 0.673,0.411 0.952,1.643 0.835,3.694 -0.059,1.29 -0.176,3.108 -0.352,5.453 -0.176,1.936 -0.439,4.897 -0.792,8.885 0.117,0.938 0.117,2.229 0,3.87 -0.294,1.114 -1.174,1.671 -2.639,1.671 -0.763,0 -1.495,-0.205 -2.199,-0.615 -0.352,-1.113 -0.527,-1.584 -0.527,-1.408 0.116,-1.583 -0.206,-3.694 -0.968,-6.333 -0.646,-1.348 -1.539,-3.268 -2.683,-5.761 -1.144,-2.492 -2.654,-3.827 -4.53,-4.003 -2.346,-0.176 -3.87,0.616 -4.574,2.375 -0.234,0.763 -0.558,1.878 -0.967,3.343 -0.704,2.17 -1.144,4.252 -1.32,6.245 -0.059,0.646 -0.118,0.91 -0.176,0.792 0.176,1.174 0.381,2.346 0.616,3.519 0.293,1.466 1.012,2.581 2.155,3.342 1.144,0.763 3.327,1.231 6.553,1.407 7.916,0.471 12.812,3.227 14.689,8.269 0.292,0.47 0.585,1.261 0.879,2.374 z"
               fill="#ffffff"
               id="path28"
               style="stroke-width:2.1504" />
          </g>
        </g>
      </g>
    </g>
  </g>
</svg>
